<svg width="30" height="27" viewBox="0 0 30 27" fill="none" xmlns="http://www.w3.org/2000/svg">
<path d="M11.985 15.4083L15.227 19.0943C16.427 20.4593 17.028 21.1423 17.657 20.9753C18.285 20.8093 18.501 19.9113 18.932 18.1143L21.322 8.14628C21.987 5.37828 22.319 3.99528 21.581 3.31228C20.843 2.62928 19.564 3.13728 17.006 4.15228L5.13998 8.86528C3.09398 9.67828 2.07099 10.0843 2.00599 10.7823C1.99833 10.8534 1.99833 10.9252 2.00599 10.9963C2.06899 11.6953 3.08998 12.1043 5.13398 12.9233C6.05898 13.2943 6.52199 13.4803 6.85399 13.8353C6.89132 13.8753 6.92732 13.9166 6.96199 13.9593C7.26799 14.3393 7.39799 14.8393 7.65899 15.8353L8.14798 17.7023C8.40098 18.6723 8.52799 19.1583 8.86099 19.2243C9.19399 19.2903 9.48299 18.8883 10.062 18.0833L11.985 15.4083ZM11.985 15.4083L11.668 15.0783C11.306 14.7003 11.125 14.5123 11.125 14.2783C11.125 14.0443 11.305 13.8553 11.668 13.4783L15.241 9.75428" stroke="#27ABE9" stroke-width="1.5" stroke-linecap="round" stroke-linejoin="round"/>
<path d="M21.3296 17.967C21.3296 18.0808 21.3748 18.1899 21.4552 18.2703C21.5357 18.3508 21.6448 18.396 21.7586 18.396C21.8724 18.396 21.9815 18.3508 22.0619 18.2703C22.1424 18.1899 22.1876 18.0808 22.1876 17.967V17.429C22.1868 17.3155 22.1414 17.2068 22.0611 17.1265C21.9808 17.0462 21.8721 17.0008 21.7586 17C21.6451 17.0008 21.5364 17.0462 21.4561 17.1265C21.3758 17.2068 21.3304 17.3155 21.3296 17.429V17.967Z" fill="#27ABE9"/>
<path d="M26.59 11.8718C26.488 11.7498 26.331 11.5938 26.0785 11.5443C25.866 11.5028 25.6565 11.5558 25.502 11.5993C25.3804 11.6365 25.2665 11.6955 25.166 11.7733C25.076 11.8403 24.991 11.9198 24.9135 12.0003C24.7531 12.1712 24.6049 12.3532 24.47 12.5448C24.309 12.7698 24.2045 12.9983 24.166 13.2588C24.1537 13.3414 24.1484 13.4249 24.15 13.5083C23.7315 13.5483 23.271 13.7493 22.8825 14.2353L22.6865 14.4778C22.5955 14.5893 22.5105 14.6938 22.4455 14.7783C22.3876 14.8513 22.3339 14.9274 22.2845 15.0063C22.2575 15.05 22.2339 15.0956 22.214 15.1428C22.195 15.1898 22.164 15.2758 22.164 15.3828C22.164 15.4778 22.1795 15.5628 22.2055 15.6388C21.8761 15.5436 21.5349 15.4953 21.192 15.4953H19.556C19.6155 15.4843 19.67 15.4546 19.7115 15.4106C19.7531 15.3665 19.7795 15.3104 19.787 15.2503L20.002 13.7153C20.017 13.5953 20.122 13.5003 20.252 13.5003C20.387 13.5003 20.502 13.6153 20.502 13.7503C20.502 14.1603 20.832 14.4903 21.237 14.5003C21.657 14.5103 22.002 14.1553 22.002 13.7353V13.5003C22.002 12.6703 21.332 12.0003 20.502 12.0003C20.117 12.0003 19.767 12.1603 19.502 12.4153C19.237 12.1603 18.887 12.0003 18.502 12.0003C17.672 12.0003 17.002 12.6703 17.002 13.5003V13.7353C17.002 14.1553 17.347 14.5103 17.767 14.5003C18.172 14.4903 18.502 14.1603 18.502 13.7503C18.502 13.6153 18.617 13.5003 18.752 13.5003C18.882 13.5003 18.987 13.5953 19.002 13.7153L19.217 15.2503C19.2245 15.3104 19.2509 15.3665 19.2924 15.4106C19.334 15.4546 19.3884 15.4843 19.448 15.4953H17.917C17.182 15.4953 16.355 15.8613 15.723 16.3803C15.1 16.8913 14.556 17.6438 14.545 18.5083H14.5425L14.566 19.0233C14.6445 20.7383 15.275 22.4653 16.3255 23.8328L15.3 24.6443C14.72 25.0898 15.0345 26.0193 15.767 26.0193H17.458C17.7375 26.0193 18.092 25.9363 18.3355 25.8708C18.43 25.8458 18.517 25.8203 18.5895 25.7983C19.6443 26.3754 20.8434 26.6351 22.0425 26.5463C23.2625 26.4618 24.3175 26.2583 25.2135 25.9148C25.2605 25.9348 25.3108 25.9472 25.3645 25.9518C25.963 26.0018 26.4335 26.0018 27.158 26.0008H27.461C27.6765 26.0008 27.9 25.9663 28.088 25.8523C28.3015 25.7228 28.427 25.5143 28.4455 25.2808C28.462 25.0763 28.3945 24.8973 28.3265 24.7718C28.2559 24.644 28.165 24.5285 28.0575 24.4298C27.939 24.3246 27.8168 24.2237 27.691 24.1273C27.769 24.0253 27.8433 23.9198 27.914 23.8108C28.682 22.6293 29 21.0973 29 19.2353V19.2303C28.98 17.0538 28.185 15.3583 26.6 14.1003C26.765 13.7548 26.841 13.3693 26.859 13.0358C26.8716 12.8315 26.86 12.6264 26.8245 12.4248C26.7925 12.2528 26.7295 12.0378 26.59 11.8718ZM27.1585 25.0013C26.471 25.0013 26.0525 25.0023 25.5435 24.9633L25.3405 24.9033C23.9605 24.4963 23.4235 24.1543 23.1585 23.7463C23.0245 23.5403 22.937 23.2808 22.8775 22.9073C22.817 22.5273 22.7905 22.0703 22.7575 21.4723L22.749 21.3323C22.696 20.3903 22.09 19.6913 21.442 19.2438C20.794 18.7963 20.017 18.5348 19.4345 18.5018C18.6865 18.4593 16.5325 18.4808 15.5455 18.4938C15.5635 18.0503 15.8605 17.5613 16.3575 17.1538C16.8675 16.7348 17.4775 16.4958 17.917 16.4958H21.192C21.8881 16.4963 22.5557 16.7721 23.0493 17.2629C23.543 17.7537 23.8225 18.4198 23.827 19.1158C23.775 19.9908 24.397 20.5993 25.049 20.7568C25.383 20.8368 25.763 20.8108 26.092 20.6108C26.4305 20.4048 26.6535 20.0528 26.7295 19.6048C26.9965 18.0383 26.616 16.1648 25.4975 14.9373L25.4525 14.8878L25.396 14.8523C25.2782 14.7741 25.1408 14.7308 24.9995 14.7273C24.9146 14.7278 24.8307 14.7452 24.7525 14.7784C24.6744 14.8116 24.6037 14.86 24.5445 14.9208C24.2755 15.1898 24.0805 15.2873 23.9005 15.3228C23.749 15.3528 23.5685 15.3473 23.308 15.2993L23.4475 15.1278L23.664 14.8598C23.9045 14.5588 24.1435 14.5008 24.3125 14.5008C24.4405 14.5008 24.514 14.5058 24.5645 14.5088L24.5785 14.5098H24.5825C24.6025 14.5113 24.6575 14.5148 24.7125 14.5098C24.836 14.4998 24.9524 14.4476 25.042 14.3619C25.1315 14.2762 25.1889 14.1623 25.2045 14.0393C25.2165 13.9487 25.2085 13.8565 25.181 13.7693C25.148 13.5853 25.1445 13.4818 25.156 13.4043C25.166 13.3343 25.193 13.2533 25.2835 13.1268C25.4015 12.9618 25.5235 12.8088 25.6335 12.6953C25.6881 12.6387 25.7321 12.5982 25.7655 12.5738L25.7895 12.5573L25.8275 12.5473C25.8325 12.5633 25.8371 12.5837 25.8415 12.6083C25.8595 12.7048 25.8685 12.8343 25.8605 12.9823C25.844 13.2868 25.761 13.5938 25.6255 13.7988C25.557 13.9018 25.4595 14.0888 25.5125 14.3238C25.5535 14.5058 25.6735 14.6308 25.711 14.6698L25.7165 14.6753L25.7475 14.7078L25.7835 14.7343C27.2475 15.8093 27.981 17.2563 28 19.2378C28 21.0008 27.6955 22.3128 27.0755 23.2663C27.0175 23.3563 26.9563 23.443 26.892 23.5263C26.4628 23.212 26.0301 22.9025 25.594 22.5978C25.5401 22.5602 25.4794 22.5336 25.4153 22.5194C25.3511 22.5053 25.2848 22.5039 25.2202 22.5153C25.0895 22.5385 24.9735 22.6126 24.8975 22.7213C24.8215 22.8301 24.7918 22.9645 24.815 23.0952C24.8381 23.2258 24.9122 23.3418 25.021 23.4178C25.9335 24.0553 26.78 24.6788 27.1835 25.0008L27.1585 25.0013ZM17.4535 25.0198H16.438L16.9845 24.5873C17.1345 24.7383 17.2908 24.8825 17.4535 25.0198ZM24.827 19.1303C24.8272 18.5962 24.7095 18.0687 24.4824 17.5853C24.2552 17.1019 23.9242 16.6746 23.513 16.3338C23.708 16.3478 23.9015 16.3413 24.094 16.3033C24.4175 16.2393 24.703 16.0948 24.976 15.8763C25.684 16.8358 25.95 18.2248 25.744 19.4363C25.7085 19.6453 25.626 19.7233 25.5725 19.7558C25.509 19.7943 25.4095 19.8143 25.2835 19.7838C25.0205 19.7203 24.8035 19.4858 24.8255 19.1653L24.827 19.1478V19.1303ZM21.9735 25.5488C18.593 25.7828 15.992 22.8113 15.607 19.4928C16.607 19.4798 18.676 19.4598 19.378 19.4998C19.7565 19.5213 20.3595 19.7113 20.8735 20.0663C21.3865 20.4208 21.722 20.8743 21.751 21.3878L21.76 21.5488C21.792 22.1208 21.82 22.6288 21.89 23.0643C21.9615 23.5123 22.0815 23.9228 22.32 24.2903C22.605 24.7298 23.0265 25.0563 23.612 25.3353C23.0711 25.4426 22.5238 25.5139 21.9735 25.5488Z" fill="#27ABE9"/>
<path d="M23.048 13.0627C23.2093 13.0627 23.3641 12.9986 23.4782 12.8845C23.5923 12.7704 23.6565 12.6156 23.6565 12.4542C23.6565 12.2928 23.5923 12.138 23.4782 12.0239C23.3641 11.9098 23.2093 11.8457 23.048 11.8457C22.8866 11.8457 22.7318 11.9098 22.6177 12.0239C22.5036 12.138 22.4395 12.2928 22.4395 12.4542C22.4395 12.6156 22.5036 12.7704 22.6177 12.8845C22.7318 12.9986 22.8866 13.0627 23.048 13.0627ZM16.002 15.5002C16.1346 15.5002 16.2617 15.4475 16.3555 15.3538C16.4493 15.26 16.502 15.1328 16.502 15.0002C16.502 14.8676 16.4493 14.7404 16.3555 14.6466C16.2617 14.5529 16.1346 14.5002 16.002 14.5002C15.8693 14.5002 15.7422 14.5529 15.6484 14.6466C15.5546 14.7404 15.502 14.8676 15.502 15.0002C15.502 15.1328 15.5546 15.26 15.6484 15.3538C15.7422 15.4475 15.8693 15.5002 16.002 15.5002Z" fill="#27ABE9"/>
</svg>
